<svg viewBox="0 0 256 256" xmlns="http://www.w3.org/2000/svg" role="img" aria-label="go-quake3">
  <defs>
    <linearGradient id="qarena" x1="0" y1="0" x2="1" y2="1">
      <stop offset="0" stop-color="#E81818"/>
      <stop offset="1" stop-color="#5A0808"/>
    </linearGradient>
  </defs>
  <rect width="256" height="256" rx="56" fill="url(#qarena)"/>
  <g fill="#FFFFFF">
    <rect x="18" y="110" width="20" height="36" rx="3"/>
    <rect x="34" y="120" width="194" height="16" rx="2"/>
    <polygon points="222,106 222,150 248,128"/>
  </g>
  <g fill="#FFFFFF" fill-rule="evenodd">
    <path d="M124 68 A60 60 0 1 1 124 188 A60 60 0 1 1 124 68 z M124 92 A36 36 0 1 0 124 164 A36 36 0 1 0 124 92 z"/>
    <path d="M150 152 L170 152 L196 192 L176 192 z"/>
  </g>
</svg>
